<?xml version="1.0" standalone="no"?>
<!DOCTYPE svg PUBLIC "-//W3C//DTD SVG 20010904//EN"
 "http://www.w3.org/TR/2001/REC-SVG-20010904/DTD/svg10.dtd">
<svg version="1.0" xmlns="http://www.w3.org/2000/svg"
 width="576.000000pt" height="433.000000pt" viewBox="0 0 576.000000 433.000000"
 preserveAspectRatio="xMidYMid meet">

<g transform="translate(0.000000,433.000000) scale(0.100000,-0.100000)"
fill="#000000" stroke="none">
<path d="M2900 2235 c0 -198 1 -205 20 -205 18 0 20 7 20 85 0 98 14 136 60
160 40 21 57 19 85 -10 23 -23 25 -31 25 -130 0 -98 1 -105 20 -105 19 0 20 7
20 110 0 81 -4 119 -15 141 -31 58 -105 61 -162 6 l-33 -31 0 92 c0 85 -1 92
-20 92 -19 0 -20 -7 -20 -205z"/>
<path d="M1595 2420 c-15 -25 13 -30 161 -30 147 0 154 1 154 20 0 19 -7 20
-154 20 -93 0 -157 -4 -161 -10z"/>
<path d="M3240 2351 c0 -80 0 -81 25 -81 24 0 25 3 25 60 l0 60 60 0 c75 0
107 -14 120 -55 14 -43 4 -80 -27 -105 -21 -17 -41 -20 -114 -20 l-89 0 0 -91
c0 -88 1 -90 23 -87 20 3 22 9 25 76 l3 72 79 0 c74 0 82 2 112 29 30 27 33
34 33 90 0 55 -3 64 -32 93 -32 32 -35 33 -138 36 l-105 4 0 -81z"/>
<path d="M1730 2180 c0 -143 1 -150 20 -150 19 0 20 7 20 150 0 143 -1 150
-20 150 -19 0 -20 -7 -20 -150z"/>
<path d="M1998 2323 c-31 -5 -85 -54 -99 -90 -23 -60 -5 -125 46 -173 23 -21
36 -25 90 -25 54 0 67 4 90 25 31 29 55 81 55 118 0 35 -35 103 -63 123 -25
18 -79 28 -119 22z m87 -53 c72 -45 64 -160 -15 -195 -37 -17 -40 -17 -77 1
-76 38 -82 151 -10 194 40 25 62 25 102 0z"/>
<path d="M2675 2323 c-36 -9 -77 -45 -91 -79 -28 -68 -14 -133 41 -184 23 -21
36 -25 90 -25 57 0 67 3 95 30 30 29 30 29 9 37 -15 6 -25 4 -33 -6 -20 -26
-65 -38 -102 -26 -36 12 -74 66 -74 106 0 53 53 114 99 114 25 0 71 -20 71
-32 0 -11 37 -11 44 0 3 5 -7 20 -22 34 -27 26 -89 41 -127 31z"/>
<path d="M3648 2321 c-20 -4 -44 -14 -53 -21 -27 -22 -1 -31 42 -14 53 21 88
12 113 -29 34 -54 25 -62 -58 -59 -69 4 -73 2 -102 -26 -39 -40 -39 -74 0
-114 28 -28 35 -30 81 -26 33 4 58 13 74 28 l24 23 10 -27 c6 -14 17 -26 25
-26 11 0 13 19 9 108 -3 59 -9 117 -14 129 -16 44 -82 67 -151 54z m112 -156
c14 -8 12 -47 -3 -66 -32 -42 -104 -52 -137 -19 -31 31 -21 77 20 94 17 6 106
0 120 -9z"/>
<path d="M2250 2196 c0 -124 0 -125 28 -146 39 -31 112 -24 152 15 l30 29 0
-26 c0 -18 7 -29 21 -33 11 -4 21 -5 23 -3 1 1 0 67 -2 146 -4 132 -5 142 -23
142 -17 0 -19 -8 -19 -86 0 -70 -4 -93 -20 -120 -35 -55 -112 -66 -142 -20 -4
6 -8 59 -8 119 0 100 -1 107 -20 107 -19 0 -20 -7 -20 -124z"/>
<path d="M3860 2309 c0 -9 40 -103 60 -141 5 -9 20 -44 34 -77 23 -56 24 -64
11 -95 -16 -38 -40 -60 -55 -51 -6 3 -10 -3 -10 -14 0 -17 6 -21 30 -21 29 0
70 32 70 56 0 6 13 42 29 80 35 82 101 257 101 267 0 4 -8 7 -18 7 -14 0 -24
-14 -35 -47 -9 -27 -25 -73 -37 -103 -12 -30 -24 -63 -27 -72 -6 -19 -23 -25
-23 -8 0 6 -21 60 -46 120 -36 85 -50 110 -65 110 -10 0 -19 -5 -19 -11z"/>
</g>
</svg>
