<?xml version="1.0" standalone="no"?>
<!DOCTYPE svg PUBLIC "-//W3C//DTD SVG 20010904//EN"
 "http://www.w3.org/TR/2001/REC-SVG-20010904/DTD/svg10.dtd">
<svg version="1.0" xmlns="http://www.w3.org/2000/svg"
 width="578.000000pt" height="432.000000pt" viewBox="0 0 578.000000 432.000000"
 preserveAspectRatio="xMidYMid meet">

<g transform="translate(0.000000,432.000000) scale(0.100000,-0.100000)"
fill="#000000" stroke="none">
<path d="M2930 2240 l0 -260 29 0 29 0 4 126 3 126 39 34 c30 26 49 34 77 34
72 0 89 -38 89 -201 l0 -119 26 0 26 0 -3 149 c-4 133 -6 153 -25 178 -43 57
-133 56 -192 -3 -19 -19 -36 -34 -38 -34 -2 0 -4 52 -4 115 l0 115 -30 0 -30
0 0 -260z"/>
<path d="M1100 2455 l0 -25 200 0 200 0 0 25 0 25 -200 0 -200 0 0 -25z"/>
<path d="M3410 2381 l0 -101 30 0 30 0 0 75 0 75 88 0 c79 0 92 -3 117 -24 51
-44 44 -159 -11 -185 -14 -6 -76 -11 -139 -11 l-115 0 0 -115 0 -115 30 0 30
0 0 90 0 90 96 0 c111 0 137 11 178 73 37 58 36 120 -4 175 -16 23 -40 47 -52
53 -14 8 -75 15 -150 17 l-128 4 0 -101z"/>
<path d="M1270 2170 l0 -190 25 0 25 0 0 190 0 190 -25 0 -25 0 0 -190z"/>
<path d="M1645 2342 c-85 -32 -125 -87 -125 -173 0 -75 21 -123 72 -159 35
-26 50 -30 105 -30 92 0 152 43 174 123 32 121 -39 234 -154 242 -29 2 -61 1
-72 -3z m120 -60 c76 -65 81 -156 13 -224 -31 -31 -45 -38 -76 -38 -120 0
-174 157 -85 246 29 29 40 34 81 34 30 -1 54 -7 67 -18z"/>
<path d="M2592 2342 c-37 -11 -91 -61 -107 -99 -35 -83 -5 -190 65 -237 32
-21 51 -26 103 -26 55 0 70 4 105 30 47 34 51 45 23 60 -16 8 -26 4 -53 -20
-26 -24 -42 -30 -76 -30 -39 0 -49 5 -83 40 -37 38 -39 43 -39 103 0 58 3 66
35 100 31 33 40 37 83 37 38 0 56 -6 78 -25 34 -29 34 -29 58 -12 17 13 16 16
-19 44 -48 40 -110 53 -173 35z"/>
<path d="M3975 2344 c-11 -3 -34 -12 -52 -21 -26 -14 -30 -20 -22 -35 9 -16
12 -17 25 -4 18 18 92 30 133 21 40 -8 61 -39 61 -88 l0 -38 -37 8 c-137 29
-244 -38 -213 -133 6 -18 23 -43 37 -54 47 -37 179 -20 206 27 12 19 27 6 27
-23 0 -20 5 -24 30 -24 25 0 30 4 30 24 0 14 -4 28 -10 31 -5 3 -10 50 -11
103 -1 110 -12 151 -51 182 -28 22 -110 34 -153 24z m143 -233 c4 -52 -19 -79
-76 -92 -73 -16 -122 12 -122 71 0 55 26 70 120 67 l75 -2 3 -44z"/>
<path d="M2010 2204 c0 -138 5 -159 43 -201 17 -19 31 -23 80 -23 48 0 66 5
97 28 22 15 41 34 43 42 3 8 5 5 6 -8 2 -38 20 -62 46 -62 20 0 25 5 25 24 0
14 -4 28 -10 31 -6 4 -10 67 -10 156 l0 149 -25 0 -25 0 0 -112 c0 -94 -3
-118 -19 -142 -42 -64 -129 -87 -167 -45 -16 18 -19 40 -22 160 l-4 139 -29 0
-29 0 0 -136z"/>
<path d="M4295 2318 c4 -13 13 -33 21 -45 8 -12 14 -27 14 -33 0 -6 12 -37 26
-68 15 -31 32 -70 39 -87 7 -16 18 -42 25 -57 17 -37 16 -66 -6 -113 -15 -30
-26 -41 -47 -43 -21 -3 -27 -9 -27 -28 0 -55 107 -14 125 48 3 13 19 55 34 93
16 39 41 102 56 140 15 39 32 81 38 95 41 94 45 120 17 120 -22 0 -34 -18 -60
-98 -10 -31 -28 -82 -40 -112 -12 -30 -25 -66 -30 -80 -7 -24 -9 -22 -30 25
-12 28 -29 68 -37 90 -8 22 -19 49 -23 60 -49 117 -48 115 -75 115 -23 0 -25
-3 -20 -22z"/>
</g>
</svg>
