<?xml version="1.0" standalone="no"?>
<!DOCTYPE svg PUBLIC "-//W3C//DTD SVG 20010904//EN"
 "http://www.w3.org/TR/2001/REC-SVG-20010904/DTD/svg10.dtd">
<svg version="1.0" xmlns="http://www.w3.org/2000/svg"
 width="801.000000pt" height="601.000000pt" viewBox="0 0 801.000000 601.000000"
 preserveAspectRatio="xMidYMid meet">

<g transform="translate(0.000000,601.000000) scale(0.100000,-0.100000)"
fill="#000000" stroke="none">
<path d="M30 5977 l-25 -13 -3 -2982 -2 -2982 4005 0 4005 0 0 2979 0 2979
-34 16 c-31 15 -369 16 -3978 16 -3159 0 -3948 -3 -3968 -13z m4140 -2682 l0
-165 36 39 c48 54 107 81 176 81 71 0 114 -28 148 -95 24 -48 25 -56 25 -255
l0 -205 -45 0 -45 0 -5 200 c-4 171 -8 204 -23 226 -50 74 -162 57 -233 -37
l-29 -37 -3 -179 -3 -178 -45 0 -44 0 0 385 0 385 45 0 45 0 0 -165z m-2080
105 l0 -40 -305 0 -305 0 0 40 0 40 305 0 305 0 0 -40z m3054 26 c163 -68 200
-289 68 -408 -54 -48 -93 -58 -239 -58 l-123 0 0 -135 0 -135 -45 0 -45 0 0
180 0 180 170 0 c189 0 209 5 243 59 30 49 30 138 1 177 -46 62 -65 69 -200
73 l-124 3 0 -111 0 -111 -45 0 -45 0 0 150 0 150 175 0 c126 0 185 -4 209
-14z m-3314 -451 l0 -285 -45 0 -45 0 0 285 0 285 45 0 45 0 0 -285z m610 260
c181 -64 240 -310 110 -458 -51 -58 -125 -90 -205 -90 -309 0 -381 438 -90
550 43 16 135 16 185 -2z m1393 -18 c49 -29 95 -84 81 -96 -5 -5 -24 -13 -43
-20 -31 -10 -35 -9 -54 15 -62 80 -204 68 -266 -21 -92 -135 -9 -325 143 -325
58 0 92 13 126 50 26 28 30 29 61 19 19 -7 38 -15 43 -19 17 -16 -73 -98 -127
-116 -235 -80 -442 133 -360 371 21 62 93 136 154 158 69 26 184 18 242 -16z
m1928 5 c40 -21 61 -40 79 -72 23 -42 25 -57 28 -200 3 -119 7 -159 19 -172 8
-9 13 -30 11 -50 -3 -29 -7 -33 -35 -36 -39 -4 -73 26 -73 64 l0 26 -36 -32
c-122 -107 -314 -77 -354 57 -48 159 138 261 359 197 23 -7 24 -6 16 42 -4 27
-13 61 -21 76 -33 63 -135 77 -236 31 -59 -26 -61 -26 -74 -8 -23 31 -17 40
44 68 77 35 78 35 153 36 55 1 77 -4 120 -27z m-2891 -173 c0 -195 3 -212 43
-256 46 -52 179 -16 226 61 19 30 21 48 21 210 l0 176 50 0 50 0 0 -229 c0
-198 2 -230 16 -235 11 -4 14 -17 12 -43 -3 -33 -7 -38 -31 -41 -46 -6 -77 22
-77 68 0 22 -1 40 -3 40 -2 0 -24 -19 -49 -43 -33 -32 -61 -48 -105 -60 -108
-31 -183 -4 -224 80 -22 45 -24 61 -27 256 l-4 207 51 0 51 0 0 -191z m3295
-26 c48 -120 90 -222 94 -226 4 -4 45 92 89 214 45 122 84 224 86 226 2 2 22
3 44 1 l41 -3 -134 -347 c-74 -191 -141 -358 -150 -372 -21 -32 -74 -56 -124
-56 l-41 0 0 43 c0 42 1 43 29 39 37 -5 63 22 91 98 l21 57 -111 264 c-62 145
-114 267 -117 272 -2 4 18 7 45 7 l50 0 87 -217z"/>
<path d="M2275 3154 c-74 -38 -106 -97 -106 -190 0 -116 71 -194 176 -194 159
0 240 204 132 335 -51 62 -137 83 -202 49z"/>
<path d="M5568 2959 c-45 -13 -88 -60 -88 -96 0 -34 28 -79 57 -92 33 -15 117
-14 156 3 52 22 79 59 85 115 4 47 3 51 -22 60 -41 16 -147 21 -188 10z"/>
</g>
</svg>
