<?xml version="1.0" standalone="no"?>
<!DOCTYPE svg PUBLIC "-//W3C//DTD SVG 20010904//EN"
 "http://www.w3.org/TR/2001/REC-SVG-20010904/DTD/svg10.dtd">
<svg version="1.0" xmlns="http://www.w3.org/2000/svg"
 width="576.000000pt" height="433.000000pt" viewBox="0 0 576.000000 433.000000"
 preserveAspectRatio="xMidYMid meet">

<g transform="translate(0.000000,433.000000) scale(0.100000,-0.100000)"
fill="#000000" stroke="none">
<path d="M2987 2393 c-4 -3 -7 -87 -7 -185 0 -152 2 -178 15 -178 12 0 15 15
15 76 0 115 41 168 115 150 31 -8 45 -55 45 -153 0 -60 3 -73 16 -73 24 0 17
222 -8 246 -27 27 -94 22 -127 -10 -15 -14 -30 -26 -34 -26 -4 0 -7 36 -7 80
0 73 -6 91 -23 73z"/>
<path d="M1380 2370 c0 -19 7 -20 145 -20 138 0 145 1 145 20 0 19 -7 20 -145
20 -138 0 -145 -1 -145 -20z"/>
<path d="M3390 2320 c0 -63 2 -70 20 -70 17 0 20 7 20 50 l0 50 69 0 c63 0 71
-2 90 -26 27 -35 27 -66 -2 -100 -22 -25 -29 -27 -110 -27 l-87 -1 0 -83 c0
-76 2 -83 20 -83 17 0 19 8 22 68 l3 67 72 1 c62 0 77 4 97 23 57 54 57 114 0
168 -35 32 -37 33 -125 33 l-89 0 0 -70z"/>
<path d="M1510 2165 c0 -128 1 -135 20 -135 19 0 20 7 20 135 0 128 -1 135
-20 135 -19 0 -20 -7 -20 -135z"/>
<path d="M2672 2289 c-72 -15 -117 -97 -93 -167 15 -42 53 -80 88 -89 53 -13
143 17 143 47 0 18 -33 18 -52 0 -24 -22 -75 -26 -98 -7 -51 40 -62 91 -30
142 28 46 62 59 105 40 19 -7 35 -19 35 -25 0 -8 6 -7 21 1 21 11 21 11 2 31
-25 24 -78 36 -121 27z"/>
<path d="M1792 2256 c-35 -33 -37 -37 -36 -96 1 -55 4 -65 33 -93 28 -29 37
-32 91 -32 51 0 63 4 89 29 54 52 53 142 -2 195 -26 27 -38 31 -84 31 -47 0
-58 -4 -91 -34z m127 -1 c83 -43 53 -195 -39 -195 -62 0 -106 78 -81 142 9 25
63 68 84 68 4 0 21 -7 36 -15z"/>
<path d="M2180 2186 c0 -91 3 -107 22 -131 19 -24 26 -27 68 -23 31 3 56 13
71 27 24 22 24 22 27 2 3 -17 39 -40 46 -29 1 1 0 60 -2 131 -4 117 -6 127
-23 127 -17 0 -19 -8 -19 -84 0 -81 -1 -86 -31 -115 -34 -35 -78 -41 -103 -15
-12 12 -16 38 -16 115 0 92 -1 99 -20 99 -19 0 -20 -7 -20 -104z"/>
<path d="M3828 2279 c-10 -5 -18 -17 -18 -25 0 -13 4 -13 30 1 62 32 117 12
127 -48 l5 -36 -35 11 c-47 14 -99 3 -131 -29 -33 -33 -33 -61 0 -97 24 -25
32 -28 76 -24 26 3 56 12 66 22 24 21 29 20 35 -4 3 -11 12 -20 21 -20 16 0
16 23 1 169 -8 67 -35 91 -104 91 -31 0 -64 -5 -73 -11z m116 -119 c32 -12 35
-51 6 -80 -23 -23 -98 -28 -118 -8 -22 22 -14 62 16 80 31 20 60 22 96 8z"/>
<path d="M4160 2277 c0 -7 4 -17 8 -22 5 -6 15 -26 22 -45 14 -37 47 -114 61
-142 24 -47 -11 -127 -48 -113 -8 2 -13 -4 -13 -15 0 -15 7 -20 28 -20 33 0
53 20 72 70 7 19 19 49 25 65 41 99 86 227 81 232 -15 16 -34 -15 -66 -107
-19 -56 -37 -103 -41 -106 -6 -4 -17 19 -66 143 -20 52 -33 73 -45 73 -10 0
-18 -6 -18 -13z"/>
</g>
</svg>
